Coordinates
version=1
nRows=14
nColumns=36
inDegrees=yes

Units are S.I. units (second, meters, Newtons, ...)
If the header above contains a line with 'inDegrees', this indicates whether rotational values are in degrees (yes) or radians (no).

endheader
time	pelvis_tilt	pelvis_list	pelvis_rotation	pelvis_tx	pelvis_ty	pelvis_tz	hip_flexion_r	hip_adduction_r	hip_rotation_r	knee_angle_r	knee_angle_r_beta	ankle_angle_r	subtalar_angle_r	mtp_angle_r	hip_flexion_l	hip_adduction_l	hip_rotation_l	knee_angle_l	knee_angle_l_beta	ankle_angle_l	subtalar_angle_l	mtp_angle_l	lumbar_extension	lumbar_bending	lumbar_rotation	arm_flex_r	arm_add_r	arm_rot_r	elbow_flex_r	pro_sup_r	arm_flex_l	arm_add_l	arm_rot_l	elbow_flex_l	pro_sup_l
      9.90000000	    -20.95722299	     -0.06950582	     -0.09406037	     -0.27763597	      0.81559338	     -0.57349076	     56.26459200	     -6.57730909	     -2.20227755	     52.51175950	      0.91650310	     15.91326065	     -4.31943369	     -7.49999987	     55.40820278	     -8.41685308	     -1.85960402	     51.17316055	      0.89314014	     16.33869788	     -7.78787416	     -7.49999987	    -13.62512031	      0.23010658	     -1.04080249	     66.51256449	    -17.44437842	      6.86372202	     79.60975143	     97.27641958	     62.52640893	    -14.45904765	     -0.12254990	     76.72055101	     93.12201705
      9.91000000	    -20.45345179	     -0.06444533	      0.08369412	     -0.27449428	      0.82251203	     -0.57389671	     54.45148319	     -6.65976627	     -2.39666747	     50.75821135	      0.88589791	     15.39602198	     -4.24121246	     -7.49999987	     53.60915735	     -8.08677922	     -1.79920949	     49.27628200	      0.86003336	     15.58191982	     -7.88878306	     -7.49999987	    -13.08084663	      0.28861658	     -1.26597536	     65.15415374	    -17.29204064	      6.69142177	     79.67034166	     97.31017974	     60.97337613	    -14.34180155	     -0.45497111	     76.88651459	     93.20881197
      9.92000000	    -20.01061596	     -0.04214056	      0.10031332	     -0.27146774	      0.82906685	     -0.57370593	     52.77111681	     -6.52687046	     -2.33584131	     49.04142782	      0.85593439	     14.89702136	     -4.03978690	     -7.49999987	     51.88266569	     -7.94483058	     -1.87578811	     47.42705936	      0.82775834	     14.93211404	     -7.79166586	     -7.49999987	    -12.43414049	      0.22514034	     -1.33849979	     63.77698291	    -17.07446628	      6.49011649	     79.62553508	     97.32633359	     59.50911248	    -14.33389059	     -0.55898285	     76.90672578	     93.25123550
      9.93000000	    -19.44753061	      0.00015095	      0.05476739	     -0.26833642	      0.83557042	     -0.57325102	     50.97840672	     -6.36385053	     -2.29785023	     47.32531465	      0.82598256	     14.32024655	     -3.96471079	     -7.49999987	     50.03086464	     -7.91990894	     -2.17483912	     45.62112987	      0.79623892	     14.24176301	     -7.68363252	     -7.49999987	    -11.94131992	      0.10032732	     -1.37091525	     62.40842322	    -16.80787244	      6.19925199	     79.58729352	     97.35968553	     58.11056683	    -14.35008557	     -0.68359659	     76.99630846	     93.28854425
      9.94000000	    -18.83706325	      0.02999685	      0.03772388	     -0.26516903	      0.84187630	     -0.57283101	     49.13398436	     -6.18884348	     -2.26639385	     45.60342772	      0.79592996	     13.66087379	     -4.11080046	     -7.49999987	     48.13870867	     -7.87506162	     -2.43506103	     43.79068208	      0.76429158	     13.59051221	     -7.56030387	     -7.49999987	    -11.53240105	     -0.01428161	     -1.42374250	     61.07237531	    -16.64892868	      6.00770125	     79.60214673	     97.41820805	     56.77235440	    -14.35793087	     -0.83734629	     77.12726039	     93.32582049
      9.95000000	    -18.52027668	      0.01340683	      0.05299675	     -0.26215210	      0.84730192	     -0.57257017	     47.67192166	     -6.02516518	     -2.31934974	     43.99079435	      0.76778420	     13.23112968	     -4.08174185	     -7.49999987	     46.63807069	     -7.78424545	     -2.48616934	     42.05579941	      0.73401217	     13.22464502	     -7.36414710	     -7.49999987	    -10.71805829	     -0.03964197	     -1.44709714	     59.70264009	    -16.65519486	      6.04387579	     79.54070452	     97.44081109	     55.38973060	    -14.34607377	     -0.88567636	     77.08540594	     93.33991015
      9.96000000	    -17.78548627	      0.03237009	      0.06889634	     -0.25904562	      0.85326553	     -0.57233696	     45.71806930	     -5.79827683	     -2.09158825	     42.29657395	      0.73821448	     12.12687603	     -4.92284369	     -7.49999987	     44.62612476	     -7.59952028	     -2.45240005	     40.21008187	      0.70179832	     12.25150500	     -7.75067225	     -7.49999987	    -10.56043820	     -0.10853674	     -1.48757821	     58.47909945	    -16.49235057	      5.74471549	     79.74429853	     97.62246141	     54.12033293	    -14.25133682	     -1.30567964	     77.46460972	     93.52200425
      9.97000000	    -17.28624328	      0.01847919	      0.14245712	     -0.25597531	      0.85832301	     -0.57240112	     44.08971637	     -5.71384457	     -2.12421390	     40.76584040	      0.71149814	     11.68521174	     -4.81260929	     -7.49999987	     42.98925867	     -7.44455598	     -2.44081844	     38.57396763	      0.67324274	     11.73824893	     -7.60344045	     -7.49999987	    -10.01402955	     -0.10613556	     -1.51911036	     57.21538454	    -16.51005985	      5.69064097	     79.76253331	     97.70648169	     52.85672805	    -14.13568076	     -1.46710084	     77.51012702	     93.58714133
      9.98000000	    -16.79784370	      0.00739879	      0.19339713	     -0.25287027	      0.86306872	     -0.57239902	     42.49632521	     -5.60541086	     -2.11340826	     39.27105425	      0.68540920	     11.24172814	     -4.76818164	     -7.49999987	     41.39247245	     -7.32038432	     -2.43616990	     36.99043427	      0.64560487	     11.17882281	     -7.49310887	     -7.49999987	     -9.47093218	     -0.12310999	     -1.54056721	     55.95512033	    -16.53516701	      5.58063490	     79.82913219	     97.77347079	     51.60208418	    -14.03662597	     -1.62497594	     77.59602368	     93.65407308
      9.99000000	    -16.30844724	     -0.00405667	      0.21174113	     -0.24986379	      0.86759508	     -0.57230538	     40.92426610	     -5.43976923	     -2.01166276	     37.77949893	      0.65937665	     10.69997031	     -4.97272463	     -7.49999987	     39.80278976	     -7.20018416	     -2.40335873	     35.39833742	      0.61781754	     10.53630917	     -7.57084353	     -7.49999987	     -8.97181465	     -0.11534740	     -1.51306113	     54.74082392	    -16.53329302	      5.42600991	     79.91891529	     97.84155833	     50.40263959	    -14.00880220	     -1.72762374	     77.74039292	     93.75403993
     10.00000000	    -15.85274678	     -0.03889270	      0.24461689	     -0.24698797	      0.87180357	     -0.57218420	     39.40501029	     -5.24767425	     -1.87072279	     36.30381548	      0.63362111	     10.25114601	     -4.97956080	     -7.49999987	     38.28524674	     -7.07663112	     -2.23183949	     33.85403300	      0.59086434	     10.03277523	     -7.46407807	     -7.49999987	     -8.44843431	     -0.11578005	     -1.52919440	     53.59497997	    -16.56411688	      5.37894446	     79.93276038	     97.87515911	     49.24363499	    -14.02270988	     -1.71714219	     77.80375531	     93.78340112
     10.01000000	    -15.34349097	     -0.06336706	      0.30662546	     -0.24415529	      0.87584490	     -0.57211622	     37.84775519	     -5.09298408	     -1.77795999	     34.86561008	      0.60851969	      9.76152670	     -5.22578536	     -7.49999987	     36.74716489	     -6.95274007	     -2.15134472	     32.34762910	      0.56457263	      9.48447770	     -7.53837685	     -7.49999987	     -8.04004909	     -0.11192714	     -1.53016464	     52.45570554	    -16.59102105	      5.26938626	     80.03056018	     97.93600805	     48.16323494	    -14.00174320	     -1.80267095	     77.95556473	     93.77277472
     10.02000000	    -14.87147838	     -0.09236675	      0.39035358	     -0.24134441	      0.87956703	     -0.57206480	     36.33339512	     -4.94636793	     -1.67164527	     33.44600589	      0.58374292	      9.34498262	     -5.30133452	     -7.49999987	     35.27034420	     -6.82821973	     -1.99416297	     30.87469016	      0.53886500	      9.02654228	     -7.45693603	     -7.49999987	     -7.61083640	     -0.11401291	     -1.56659903	     51.32644002	    -16.62256838	      5.14177196	     80.14645092	     97.98500735	     47.10457621	    -13.93538336	     -1.98656961	     78.09661570	     93.74137774
     10.03000000	    -14.38024119	     -0.09001436	      0.42411811	     -0.23855989	      0.88308728	     -0.57194147	     34.81826063	     -4.80913378	     -1.56006810	     32.03000404	      0.55902903	      8.95749177	     -5.47914011	     -7.49999987	     33.76390839	     -6.71531178	     -1.93041543	     29.40626428	      0.51323613	      8.58756549	     -7.49240618	     -7.49999987	     -7.24845600	     -0.14864141	     -1.58061882	     50.21271256	    -16.60054284	      4.98423656	     80.30884206	     98.02835283	     46.05952836	    -13.88985144	     -2.23456685	     78.34817942	     93.71213355
